<mxfile host="app.diagrams.net" modified="2022-09-27T06:15:54.009Z" agent="5.0 (Windows NT 10.0; WOW64) AppleWebKit/537.36 (KHTML, like Gecko) Chrome/86.0.4240.198 Safari/537.36" etag="oushb0lBzwfoxLiJMQk_" version="20.3.6" type="github">
  <diagram name="合同" id="efa7a0a1-bf9b-a30e-e6df-94a7791c09e9">
    <mxGraphModel dx="1411" dy="580" grid="1" gridSize="10" guides="1" tooltips="1" connect="1" arrows="1" fold="1" page="1" pageScale="1" pageWidth="826" pageHeight="1169" background="none" math="0" shadow="0">
      <root>
        <mxCell id="0" />
        <mxCell id="1" parent="0" />
        <mxCell id="72" value="" style="endArrow=open;endSize=12;startArrow=diamondThin;startSize=14;startFill=0;edgeStyle=orthogonalEdgeStyle;entryX=0.5;entryY=1;rounded=0;exitX=0.5;exitY=0;exitDx=0;exitDy=0;entryDx=0;entryDy=0;" parent="1" source="34" target="29" edge="1">
          <mxGeometry x="419.35999999999996" y="820" as="geometry">
            <mxPoint x="419.35999999999996" y="820" as="sourcePoint" />
            <mxPoint x="579.3599999999999" y="820" as="targetPoint" />
            <Array as="points">
              <mxPoint x="415" y="840" />
              <mxPoint x="671" y="840" />
            </Array>
          </mxGeometry>
        </mxCell>
        <mxCell id="73" value="1" style="resizable=0;align=left;verticalAlign=top;labelBackgroundColor=#ffffff;fontSize=10;strokeColor=#003366;shadow=1;fillColor=#D4E1F5;fontColor=#003366" parent="72" connectable="0" vertex="1">
          <mxGeometry x="-1" relative="1" as="geometry">
            <mxPoint x="10" y="-26.160000000000235" as="offset" />
          </mxGeometry>
        </mxCell>
        <mxCell id="74" value="1" style="resizable=0;align=right;verticalAlign=top;labelBackgroundColor=#ffffff;fontSize=10;strokeColor=#003366;shadow=1;fillColor=#D4E1F5;fontColor=#003366" parent="72" connectable="0" vertex="1">
          <mxGeometry x="1" relative="1" as="geometry">
            <mxPoint x="-11.080000000000421" as="offset" />
          </mxGeometry>
        </mxCell>
        <mxCell id="OqCfkfcgzq9piRNMNPS6-114" value="1" style="endArrow=open;html=1;endSize=12;startArrow=diamondThin;startSize=14;startFill=1;edgeStyle=orthogonalEdgeStyle;align=left;verticalAlign=bottom;rounded=0;exitX=1;exitY=0.25;exitDx=0;exitDy=0;" edge="1" parent="1" source="24">
          <mxGeometry x="-1" y="3" relative="1" as="geometry">
            <mxPoint x="470" y="620" as="sourcePoint" />
            <mxPoint x="590" y="640" as="targetPoint" />
          </mxGeometry>
        </mxCell>
        <mxCell id="OqCfkfcgzq9piRNMNPS6-115" value="n" style="text;html=1;align=center;verticalAlign=middle;resizable=0;points=[];autosize=1;strokeColor=none;fillColor=none;" vertex="1" parent="1">
          <mxGeometry x="567" y="590" width="30" height="30" as="geometry" />
        </mxCell>
        <mxCell id="OqCfkfcgzq9piRNMNPS6-117" value="Use" style="endArrow=open;endSize=12;dashed=1;exitX=-0.012;exitY=0.719;exitDx=0;exitDy=0;exitPerimeter=0;" edge="1" parent="1" target="OqCfkfcgzq9piRNMNPS6-116" source="29">
          <mxGeometry as="geometry">
            <mxPoint x="600" y="800" as="sourcePoint" />
            <mxPoint x="590" y="698.36" as="targetPoint" />
            <Array as="points">
              <mxPoint x="550" y="780" />
            </Array>
            <mxPoint x="9" y="49" as="offset" />
          </mxGeometry>
        </mxCell>
        <mxCell id="OqCfkfcgzq9piRNMNPS6-118" value="" style="endArrow=none;edgeStyle=orthogonalEdgeStyle;entryX=0;entryY=0.5;entryDx=0;entryDy=0;" edge="1" parent="1" target="22">
          <mxGeometry x="560" y="597.4999999999998" as="geometry">
            <mxPoint x="750" y="584.9999999999995" as="sourcePoint" />
            <mxPoint x="820" y="584.9999999999995" as="targetPoint" />
          </mxGeometry>
        </mxCell>
        <mxCell id="OqCfkfcgzq9piRNMNPS6-119" value="parent" style="resizable=0;align=left;verticalAlign=bottom;labelBackgroundColor=#ffffff;fontSize=10;strokeColor=#003366;shadow=1;fillColor=#D4E1F5;fontColor=#003366" connectable="0" vertex="1" parent="OqCfkfcgzq9piRNMNPS6-118">
          <mxGeometry x="-1" relative="1" as="geometry">
            <mxPoint x="10" as="offset" />
          </mxGeometry>
        </mxCell>
        <mxCell id="OqCfkfcgzq9piRNMNPS6-120" value="child" style="resizable=0;align=right;verticalAlign=bottom;labelBackgroundColor=#ffffff;fontSize=10;strokeColor=#003366;shadow=1;fillColor=#D4E1F5;fontColor=#003366" connectable="0" vertex="1" parent="OqCfkfcgzq9piRNMNPS6-118">
          <mxGeometry x="1" relative="1" as="geometry">
            <mxPoint x="-10" y="25" as="offset" />
          </mxGeometry>
        </mxCell>
        <mxCell id="OqCfkfcgzq9piRNMNPS6-123" value="" style="endArrow=none;edgeStyle=orthogonalEdgeStyle;entryX=1;entryY=0.75;entryDx=0;entryDy=0;exitX=0;exitY=0.44;exitDx=0;exitDy=0;exitPerimeter=0;" edge="1" parent="1" source="OqCfkfcgzq9piRNMNPS6-122" target="OqCfkfcgzq9piRNMNPS6-121">
          <mxGeometry x="850" y="719.4599999999998" as="geometry">
            <mxPoint x="1140" y="650" as="sourcePoint" />
            <mxPoint x="1170" y="641.96" as="targetPoint" />
          </mxGeometry>
        </mxCell>
        <mxCell id="OqCfkfcgzq9piRNMNPS6-124" value="parent" style="resizable=0;align=left;verticalAlign=bottom;labelBackgroundColor=#ffffff;fontSize=10;strokeColor=#003366;shadow=1;fillColor=#D4E1F5;fontColor=#003366" connectable="0" vertex="1" parent="OqCfkfcgzq9piRNMNPS6-123">
          <mxGeometry x="-1" relative="1" as="geometry">
            <mxPoint x="-37" y="-3" as="offset" />
          </mxGeometry>
        </mxCell>
        <mxCell id="OqCfkfcgzq9piRNMNPS6-125" value="child" style="resizable=0;align=right;verticalAlign=bottom;labelBackgroundColor=#ffffff;fontSize=10;strokeColor=#003366;shadow=1;fillColor=#D4E1F5;fontColor=#003366" connectable="0" vertex="1" parent="OqCfkfcgzq9piRNMNPS6-123">
          <mxGeometry x="1" relative="1" as="geometry">
            <mxPoint x="28" y="-1" as="offset" />
          </mxGeometry>
        </mxCell>
        <mxCell id="OqCfkfcgzq9piRNMNPS6-126" value="" style="endArrow=none;edgeStyle=orthogonalEdgeStyle;entryX=0;entryY=0.5;entryDx=0;entryDy=0;exitX=0.993;exitY=0.59;exitDx=0;exitDy=0;exitPerimeter=0;" edge="1" parent="1" source="29" target="OqCfkfcgzq9piRNMNPS6-121">
          <mxGeometry x="570" y="607.4999999999998" as="geometry">
            <mxPoint x="760" y="594.9999999999995" as="sourcePoint" />
            <mxPoint x="890" y="530" as="targetPoint" />
          </mxGeometry>
        </mxCell>
        <mxCell id="OqCfkfcgzq9piRNMNPS6-127" value="parent" style="resizable=0;align=left;verticalAlign=bottom;labelBackgroundColor=#ffffff;fontSize=10;strokeColor=#003366;shadow=1;fillColor=#D4E1F5;fontColor=#003366" connectable="0" vertex="1" parent="OqCfkfcgzq9piRNMNPS6-126">
          <mxGeometry x="-1" relative="1" as="geometry">
            <mxPoint x="10" as="offset" />
          </mxGeometry>
        </mxCell>
        <mxCell id="OqCfkfcgzq9piRNMNPS6-128" value="child" style="resizable=0;align=right;verticalAlign=bottom;labelBackgroundColor=#ffffff;fontSize=10;strokeColor=#003366;shadow=1;fillColor=#D4E1F5;fontColor=#003366" connectable="0" vertex="1" parent="OqCfkfcgzq9piRNMNPS6-126">
          <mxGeometry x="1" relative="1" as="geometry">
            <mxPoint x="-10" y="25" as="offset" />
          </mxGeometry>
        </mxCell>
        <mxCell id="OqCfkfcgzq9piRNMNPS6-135" value="" style="endArrow=none;edgeStyle=orthogonalEdgeStyle;entryX=0.5;entryY=1;entryDx=0;entryDy=0;exitX=0.5;exitY=0;exitDx=0;exitDy=0;" edge="1" parent="1" source="OqCfkfcgzq9piRNMNPS6-129" target="34">
          <mxGeometry x="64.03999999999996" y="1032.5399999999997" as="geometry">
            <mxPoint x="230" y="1100" as="sourcePoint" />
            <mxPoint x="413" y="1010.0000000000005" as="targetPoint" />
            <Array as="points">
              <mxPoint x="230" y="1010" />
              <mxPoint x="415" y="1010" />
            </Array>
          </mxGeometry>
        </mxCell>
        <mxCell id="OqCfkfcgzq9piRNMNPS6-136" value="child" style="resizable=0;align=left;verticalAlign=bottom;labelBackgroundColor=#ffffff;fontSize=10;strokeColor=#003366;shadow=1;fillColor=#D4E1F5;fontColor=#003366" connectable="0" vertex="1" parent="OqCfkfcgzq9piRNMNPS6-135">
          <mxGeometry x="-1" relative="1" as="geometry">
            <mxPoint y="-4" as="offset" />
          </mxGeometry>
        </mxCell>
        <mxCell id="OqCfkfcgzq9piRNMNPS6-137" value="parent" style="resizable=0;align=right;verticalAlign=bottom;labelBackgroundColor=#ffffff;fontSize=10;strokeColor=#003366;shadow=1;fillColor=#D4E1F5;fontColor=#003366" connectable="0" vertex="1" parent="OqCfkfcgzq9piRNMNPS6-135">
          <mxGeometry x="1" relative="1" as="geometry">
            <mxPoint x="-10" y="25" as="offset" />
          </mxGeometry>
        </mxCell>
        <mxCell id="OqCfkfcgzq9piRNMNPS6-150" value="" style="group" vertex="1" connectable="0" parent="1">
          <mxGeometry x="520" y="1082" width="200" height="116" as="geometry" />
        </mxCell>
        <mxCell id="OqCfkfcgzq9piRNMNPS6-164" value="" style="group" vertex="1" connectable="0" parent="OqCfkfcgzq9piRNMNPS6-150">
          <mxGeometry width="200" height="116" as="geometry" />
        </mxCell>
        <mxCell id="OqCfkfcgzq9piRNMNPS6-131" value="&lt;p style=&quot;margin: 0px ; margin-top: 4px ; text-align: center ; text-decoration: underline&quot;&gt;&lt;strong&gt;contract_&lt;/strong&gt;&lt;b style=&quot;background-color: initial;&quot;&gt;&lt;u&gt;assets_acceptance&lt;/u&gt;&lt;/b&gt;&lt;/p&gt;&lt;hr&gt;&lt;p style=&quot;margin: 0px ; margin-left: 8px&quot;&gt;id&lt;/p&gt;&lt;p style=&quot;margin: 0px ; margin-left: 8px&quot;&gt;contract_parameter_id&lt;br&gt;&lt;/p&gt;" style="verticalAlign=top;align=left;overflow=fill;fontSize=12;fontFamily=Helvetica;html=1;strokeColor=#003366;shadow=1;fillColor=#D4E1F5;fontColor=#003366" vertex="1" parent="OqCfkfcgzq9piRNMNPS6-164">
          <mxGeometry y="26" width="200" height="90" as="geometry" />
        </mxCell>
        <mxCell id="OqCfkfcgzq9piRNMNPS6-149" value="资产验收" style="text;html=1;align=center;verticalAlign=middle;resizable=0;points=[];autosize=1;strokeColor=none;fillColor=none;" vertex="1" parent="OqCfkfcgzq9piRNMNPS6-164">
          <mxGeometry width="70" height="30" as="geometry" />
        </mxCell>
        <mxCell id="OqCfkfcgzq9piRNMNPS6-159" value="" style="group" vertex="1" connectable="0" parent="1">
          <mxGeometry x="140" y="750" width="160.0000000000001" height="150.00000000000045" as="geometry" />
        </mxCell>
        <mxCell id="OqCfkfcgzq9piRNMNPS6-116" value="&lt;p style=&quot;margin: 0px; margin-top: 4px; text-align: center; text-decoration: underline;&quot;&gt;&lt;strong&gt;contract_c&lt;/strong&gt;&lt;b style=&quot;background-color: initial;&quot;&gt;&lt;u&gt;ustomers&lt;/u&gt;&lt;/b&gt;&lt;/p&gt;&lt;hr&gt;&lt;p style=&quot;margin: 0px; margin-left: 8px;&quot;&gt;id&lt;br&gt;Name&lt;/p&gt;&lt;p style=&quot;margin: 0px; margin-left: 8px;&quot;&gt;&lt;br&gt;&lt;/p&gt;" style="verticalAlign=top;align=left;overflow=fill;fontSize=12;fontFamily=Helvetica;html=1;strokeColor=#003366;shadow=1;fillColor=#D4E1F5;fontColor=#003366" vertex="1" parent="OqCfkfcgzq9piRNMNPS6-159">
          <mxGeometry x="1.1368683772161603e-13" y="30.000000000000455" width="160" height="120" as="geometry" />
        </mxCell>
        <mxCell id="OqCfkfcgzq9piRNMNPS6-157" value="客商" style="text;html=1;align=center;verticalAlign=middle;resizable=0;points=[];autosize=1;strokeColor=none;fillColor=none;" vertex="1" parent="OqCfkfcgzq9piRNMNPS6-159">
          <mxGeometry width="50" height="30" as="geometry" />
        </mxCell>
        <mxCell id="OqCfkfcgzq9piRNMNPS6-161" value="" style="group" vertex="1" connectable="0" parent="1">
          <mxGeometry x="140" y="572" width="160.00000000000023" height="180.00000000000057" as="geometry" />
        </mxCell>
        <mxCell id="24" value="&lt;p style=&quot;margin: 0px; margin-top: 4px; text-align: center; text-decoration: underline;&quot;&gt;&lt;span style=&quot;text-align: left;&quot;&gt;contract_purchase&lt;/span&gt;&lt;br&gt;&lt;/p&gt;&lt;hr&gt;&lt;p style=&quot;margin: 0px; margin-left: 8px;&quot;&gt;id&lt;/p&gt;&lt;p style=&quot;margin: 0px; margin-left: 8px;&quot;&gt;purchase_project_name&lt;br&gt;&lt;/p&gt;&lt;p style=&quot;margin: 0px; margin-left: 8px;&quot;&gt;&lt;br&gt;&lt;/p&gt;" style="verticalAlign=top;align=left;overflow=fill;fontSize=12;fontFamily=Helvetica;html=1;strokeColor=#003366;shadow=1;fillColor=#D4E1F5;fontColor=#003366" parent="OqCfkfcgzq9piRNMNPS6-161" vertex="1">
          <mxGeometry x="2.2737367544323206e-13" y="30.00000000000057" width="160" height="150" as="geometry" />
        </mxCell>
        <mxCell id="OqCfkfcgzq9piRNMNPS6-160" value="采购" style="text;html=1;align=center;verticalAlign=middle;resizable=0;points=[];autosize=1;strokeColor=none;fillColor=none;" vertex="1" parent="OqCfkfcgzq9piRNMNPS6-161">
          <mxGeometry width="50" height="30" as="geometry" />
        </mxCell>
        <mxCell id="OqCfkfcgzq9piRNMNPS6-162" value="" style="group" vertex="1" connectable="0" parent="1">
          <mxGeometry x="335" y="870" width="160" height="118.00000000000034" as="geometry" />
        </mxCell>
        <mxCell id="34" value="&lt;p style=&quot;margin: 4px 0px 0px; text-align: center;&quot;&gt;&lt;b&gt;&lt;u&gt;contract_parameter&lt;/u&gt;&lt;/b&gt;&lt;br&gt;&lt;/p&gt;&lt;hr&gt;&lt;p style=&quot;margin: 0px ; margin-left: 8px&quot;&gt;id&lt;/p&gt;&lt;p style=&quot;margin: 0px ; margin-left: 8px&quot;&gt;contract_id&lt;br&gt;&lt;/p&gt;&lt;p style=&quot;margin: 0px ; margin-left: 8px&quot;&gt;&lt;br&gt;&lt;/p&gt;" style="verticalAlign=top;align=left;overflow=fill;fontSize=12;fontFamily=Helvetica;html=1;strokeColor=#003366;shadow=1;fillColor=#D4E1F5;fontColor=#003366" parent="OqCfkfcgzq9piRNMNPS6-162" vertex="1">
          <mxGeometry y="28.00000000000034" width="160" height="90" as="geometry" />
        </mxCell>
        <mxCell id="OqCfkfcgzq9piRNMNPS6-155" value="合同台账" style="text;html=1;align=center;verticalAlign=middle;resizable=0;points=[];autosize=1;strokeColor=none;fillColor=none;" vertex="1" parent="OqCfkfcgzq9piRNMNPS6-162">
          <mxGeometry width="70" height="30" as="geometry" />
        </mxCell>
        <mxCell id="OqCfkfcgzq9piRNMNPS6-163" value="" style="group" vertex="1" connectable="0" parent="1">
          <mxGeometry x="150" y="1080" width="160" height="116.00000000000034" as="geometry" />
        </mxCell>
        <mxCell id="OqCfkfcgzq9piRNMNPS6-129" value="&lt;p style=&quot;margin: 0px ; margin-top: 4px ; text-align: center ; text-decoration: underline&quot;&gt;&lt;strong&gt;contract_&lt;/strong&gt;&lt;b style=&quot;background-color: initial;&quot;&gt;&lt;u&gt;listing&lt;/u&gt;&lt;/b&gt;&lt;/p&gt;&lt;hr&gt;&lt;p style=&quot;margin: 0px ; margin-left: 8px&quot;&gt;id&lt;/p&gt;&lt;p style=&quot;margin: 0px ; margin-left: 8px&quot;&gt;contract_parameter_id&lt;/p&gt;" style="verticalAlign=top;align=left;overflow=fill;fontSize=12;fontFamily=Helvetica;html=1;strokeColor=#003366;shadow=1;fillColor=#D4E1F5;fontColor=#003366" vertex="1" parent="OqCfkfcgzq9piRNMNPS6-163">
          <mxGeometry y="26.00000000000034" width="160" height="90" as="geometry" />
        </mxCell>
        <mxCell id="OqCfkfcgzq9piRNMNPS6-153" value="合同清单" style="text;html=1;align=center;verticalAlign=middle;resizable=0;points=[];autosize=1;strokeColor=none;fillColor=none;" vertex="1" parent="OqCfkfcgzq9piRNMNPS6-163">
          <mxGeometry width="70" height="30" as="geometry" />
        </mxCell>
        <mxCell id="OqCfkfcgzq9piRNMNPS6-165" value="" style="group" vertex="1" connectable="0" parent="1">
          <mxGeometry x="335" y="1080" width="160" height="117.00000000000045" as="geometry" />
        </mxCell>
        <mxCell id="OqCfkfcgzq9piRNMNPS6-130" value="&lt;p style=&quot;margin: 0px ; margin-top: 4px ; text-align: center ; text-decoration: underline&quot;&gt;&lt;strong&gt;contract_&lt;/strong&gt;&lt;b style=&quot;background-color: initial;&quot;&gt;&lt;u&gt;supplies&lt;/u&gt;&lt;/b&gt;&lt;/p&gt;&lt;hr&gt;&lt;p style=&quot;margin: 0px ; margin-left: 8px&quot;&gt;id&lt;/p&gt;&lt;p style=&quot;margin: 0px ; margin-left: 8px&quot;&gt;contract_parameter_id&lt;br&gt;&lt;/p&gt;" style="verticalAlign=top;align=left;overflow=fill;fontSize=12;fontFamily=Helvetica;html=1;strokeColor=#003366;shadow=1;fillColor=#D4E1F5;fontColor=#003366" vertex="1" parent="OqCfkfcgzq9piRNMNPS6-165">
          <mxGeometry y="27.00000000000034" width="160" height="90" as="geometry" />
        </mxCell>
        <mxCell id="OqCfkfcgzq9piRNMNPS6-151" value="物料分包" style="text;html=1;align=center;verticalAlign=middle;resizable=0;points=[];autosize=1;strokeColor=none;fillColor=none;" vertex="1" parent="OqCfkfcgzq9piRNMNPS6-165">
          <mxGeometry width="70" height="30" as="geometry" />
        </mxCell>
        <mxCell id="OqCfkfcgzq9piRNMNPS6-166" value="" style="group" vertex="1" connectable="0" parent="1">
          <mxGeometry x="571" y="872" width="200" height="116" as="geometry" />
        </mxCell>
        <mxCell id="OqCfkfcgzq9piRNMNPS6-133" value="&lt;p style=&quot;margin: 0px ; margin-top: 4px ; text-align: center ; text-decoration: underline&quot;&gt;&lt;strong&gt;contract_&lt;/strong&gt;&lt;b style=&quot;background-color: initial;&quot;&gt;&lt;u&gt;performance_security&lt;/u&gt;&lt;/b&gt;&lt;/p&gt;&lt;hr&gt;&lt;p style=&quot;margin: 0px ; margin-left: 8px&quot;&gt;id&lt;/p&gt;&lt;p style=&quot;margin: 0px ; margin-left: 8px&quot;&gt;contract_parameter_id&lt;br&gt;&lt;/p&gt;" style="verticalAlign=top;align=left;overflow=fill;fontSize=12;fontFamily=Helvetica;html=1;strokeColor=#003366;shadow=1;fillColor=#D4E1F5;fontColor=#003366" vertex="1" parent="OqCfkfcgzq9piRNMNPS6-166">
          <mxGeometry y="26" width="200" height="90" as="geometry" />
        </mxCell>
        <mxCell id="OqCfkfcgzq9piRNMNPS6-147" value="履约保证" style="text;html=1;align=center;verticalAlign=middle;resizable=0;points=[];autosize=1;strokeColor=none;fillColor=none;" vertex="1" parent="OqCfkfcgzq9piRNMNPS6-166">
          <mxGeometry width="70" height="30" as="geometry" />
        </mxCell>
        <mxCell id="OqCfkfcgzq9piRNMNPS6-169" value="" style="group" vertex="1" connectable="0" parent="1">
          <mxGeometry x="880" y="540" width="160" height="150" as="geometry" />
        </mxCell>
        <mxCell id="22" value="&lt;p style=&quot;margin: 0px; margin-top: 4px; text-align: center; text-decoration: underline;&quot;&gt;&lt;strong&gt;contract_p&lt;/strong&gt;&lt;b style=&quot;background-color: initial;&quot;&gt;&lt;u&gt;ayment&lt;/u&gt;&lt;/b&gt;&lt;/p&gt;&lt;hr&gt;&lt;p style=&quot;margin: 0px; margin-left: 8px;&quot;&gt;id&lt;/p&gt;&lt;p style=&quot;margin: 0px; margin-left: 8px;&quot;&gt;contract_id&lt;/p&gt;&lt;p style=&quot;margin: 0px; margin-left: 8px;&quot;&gt;&lt;br&gt;&lt;/p&gt;" style="verticalAlign=top;align=left;overflow=fill;fontSize=12;fontFamily=Helvetica;html=1;strokeColor=#003366;shadow=1;fillColor=#D4E1F5;fontColor=#003366" parent="OqCfkfcgzq9piRNMNPS6-169" vertex="1">
          <mxGeometry y="30" width="160" height="120" as="geometry" />
        </mxCell>
        <mxCell id="OqCfkfcgzq9piRNMNPS6-168" value="支付信息" style="text;html=1;align=center;verticalAlign=middle;resizable=0;points=[];autosize=1;strokeColor=none;fillColor=none;" vertex="1" parent="OqCfkfcgzq9piRNMNPS6-169">
          <mxGeometry width="70" height="30" as="geometry" />
        </mxCell>
        <mxCell id="OqCfkfcgzq9piRNMNPS6-170" value="" style="group" vertex="1" connectable="0" parent="1">
          <mxGeometry x="590" y="501.96" width="161.08000000000027" height="230.00000000000074" as="geometry" />
        </mxCell>
        <mxCell id="29" value="&lt;p style=&quot;margin: 4px 0px 0px; text-align: center;&quot;&gt;&lt;b&gt;&lt;u&gt;contract_application&lt;/u&gt;&lt;/b&gt;&lt;br&gt;&lt;/p&gt;&lt;hr&gt;&lt;p style=&quot;margin: 0px; margin-left: 8px;&quot;&gt;id&lt;/p&gt;&lt;p style=&quot;margin: 0px; margin-left: 8px;&quot;&gt;contract_no&lt;/p&gt;&lt;p style=&quot;margin: 0px; margin-left: 8px;&quot;&gt;contract_name&lt;br&gt;&lt;/p&gt;&lt;p style=&quot;margin: 0px; margin-left: 8px;&quot;&gt;purchase_id&lt;/p&gt;&lt;p style=&quot;margin: 0px; margin-left: 8px;&quot;&gt;purchase_project_name&lt;/p&gt;&lt;p style=&quot;margin: 0px; margin-left: 8px;&quot;&gt;&lt;br&gt;&lt;/p&gt;" style="verticalAlign=top;align=left;overflow=fill;fontSize=12;fontFamily=Helvetica;html=1;strokeColor=#003366;shadow=1;fillColor=#D4E1F5;fontColor=#003366" parent="OqCfkfcgzq9piRNMNPS6-170" vertex="1">
          <mxGeometry x="1.0800000000002683" y="30.00000000000074" width="160" height="200" as="geometry" />
        </mxCell>
        <mxCell id="OqCfkfcgzq9piRNMNPS6-167" value="合同申请" style="text;html=1;align=center;verticalAlign=middle;resizable=0;points=[];autosize=1;strokeColor=none;fillColor=none;" vertex="1" parent="OqCfkfcgzq9piRNMNPS6-170">
          <mxGeometry width="70" height="30" as="geometry" />
        </mxCell>
        <mxCell id="OqCfkfcgzq9piRNMNPS6-172" value="" style="group" vertex="1" connectable="0" parent="1">
          <mxGeometry x="880" y="690" width="160" height="120.00000000000034" as="geometry" />
        </mxCell>
        <mxCell id="OqCfkfcgzq9piRNMNPS6-121" value="&lt;p style=&quot;margin: 0px ; margin-top: 4px ; text-align: center ; text-decoration: underline&quot;&gt;&lt;strong&gt;contract_&lt;/strong&gt;&lt;b style=&quot;background-color: initial;&quot;&gt;&lt;u&gt;upload&lt;/u&gt;&lt;/b&gt;&lt;/p&gt;&lt;hr&gt;&lt;p style=&quot;margin: 0px ; margin-left: 8px&quot;&gt;id&lt;/p&gt;&lt;p style=&quot;margin: 0px ; margin-left: 8px&quot;&gt;contract_id&lt;br&gt;&lt;/p&gt;&lt;p style=&quot;margin: 0px ; margin-left: 8px&quot;&gt;upload_id&lt;/p&gt;&lt;p style=&quot;margin: 0px ; margin-left: 8px&quot;&gt;&lt;br&gt;&lt;/p&gt;" style="verticalAlign=top;align=left;overflow=fill;fontSize=12;fontFamily=Helvetica;html=1;strokeColor=#003366;shadow=1;fillColor=#D4E1F5;fontColor=#003366" vertex="1" parent="OqCfkfcgzq9piRNMNPS6-172">
          <mxGeometry y="30.00000000000034" width="160" height="90" as="geometry" />
        </mxCell>
        <mxCell id="OqCfkfcgzq9piRNMNPS6-171" value="相关附件" style="text;html=1;align=center;verticalAlign=middle;resizable=0;points=[];autosize=1;strokeColor=none;fillColor=none;" vertex="1" parent="OqCfkfcgzq9piRNMNPS6-172">
          <mxGeometry width="70" height="30" as="geometry" />
        </mxCell>
        <mxCell id="OqCfkfcgzq9piRNMNPS6-174" value="" style="group" vertex="1" connectable="0" parent="1">
          <mxGeometry x="1170" y="680" width="160" height="130" as="geometry" />
        </mxCell>
        <mxCell id="OqCfkfcgzq9piRNMNPS6-122" value="&lt;p style=&quot;margin: 4px 0px 0px; text-align: center;&quot;&gt;&lt;b&gt;&lt;u&gt;base_upload&lt;/u&gt;&lt;/b&gt;&lt;br&gt;&lt;/p&gt;&lt;hr&gt;&lt;p style=&quot;margin: 0px; margin-left: 8px;&quot;&gt;id&lt;/p&gt;&lt;p style=&quot;margin: 0px; margin-left: 8px;&quot;&gt;label&lt;/p&gt;&lt;p style=&quot;margin: 0px; margin-left: 8px;&quot;&gt;type&lt;/p&gt;" style="verticalAlign=top;align=left;overflow=fill;fontSize=12;fontFamily=Helvetica;html=1;strokeColor=#003366;shadow=1;fillColor=#D4E1F5;fontColor=#003366" vertex="1" parent="OqCfkfcgzq9piRNMNPS6-174">
          <mxGeometry y="18.038277511961844" width="160" height="111.96172248803816" as="geometry" />
        </mxCell>
        <mxCell id="OqCfkfcgzq9piRNMNPS6-173" value="附件" style="text;html=1;align=center;verticalAlign=middle;resizable=0;points=[];autosize=1;strokeColor=none;fillColor=none;" vertex="1" parent="OqCfkfcgzq9piRNMNPS6-174">
          <mxGeometry y="-10" width="50" height="30" as="geometry" />
        </mxCell>
        <mxCell id="OqCfkfcgzq9piRNMNPS6-176" value="" style="group" vertex="1" connectable="0" parent="1">
          <mxGeometry x="920" y="1060" width="160" height="120.00000000000034" as="geometry" />
        </mxCell>
        <mxCell id="OqCfkfcgzq9piRNMNPS6-134" value="&lt;p style=&quot;margin: 4px 0px 0px; text-align: center;&quot;&gt;&lt;b&gt;&lt;u&gt;base_flow&lt;/u&gt;&lt;/b&gt;&lt;br&gt;&lt;/p&gt;&lt;hr&gt;&lt;p style=&quot;margin: 0px ; margin-left: 8px&quot;&gt;id&lt;/p&gt;&lt;p style=&quot;margin: 0px ; margin-left: 8px&quot;&gt;refer_id&lt;br&gt;&lt;/p&gt;" style="verticalAlign=top;align=left;overflow=fill;fontSize=12;fontFamily=Helvetica;html=1;strokeColor=#003366;shadow=1;fillColor=#D4E1F5;fontColor=#003366" vertex="1" parent="OqCfkfcgzq9piRNMNPS6-176">
          <mxGeometry y="30.00000000000034" width="160" height="90" as="geometry" />
        </mxCell>
        <mxCell id="OqCfkfcgzq9piRNMNPS6-175" value="审核单" style="text;html=1;align=center;verticalAlign=middle;resizable=0;points=[];autosize=1;strokeColor=none;fillColor=none;" vertex="1" parent="OqCfkfcgzq9piRNMNPS6-176">
          <mxGeometry width="60" height="30" as="geometry" />
        </mxCell>
        <mxCell id="OqCfkfcgzq9piRNMNPS6-177" value="" style="group" vertex="1" connectable="0" parent="1">
          <mxGeometry x="797" y="870" width="203" height="120" as="geometry" />
        </mxCell>
        <mxCell id="OqCfkfcgzq9piRNMNPS6-178" value="&lt;p style=&quot;margin: 4px 0px 0px; text-align: center;&quot;&gt;&lt;b&gt;&lt;u&gt;contract_&lt;/u&gt;&lt;/b&gt;&lt;b style=&quot;background-color: initial;&quot;&gt;&lt;u&gt;changes&lt;/u&gt;&lt;/b&gt;&lt;/p&gt;&lt;hr&gt;&lt;p style=&quot;margin: 0px ; margin-left: 8px&quot;&gt;id&lt;/p&gt;&lt;p style=&quot;margin: 0px ; margin-left: 8px&quot;&gt;contract_id&lt;br&gt;&lt;/p&gt;&lt;p style=&quot;margin: 0px ; margin-left: 8px&quot;&gt;&lt;br&gt;&lt;/p&gt;" style="verticalAlign=top;align=left;overflow=fill;fontSize=12;fontFamily=Helvetica;html=1;strokeColor=#003366;shadow=1;fillColor=#D4E1F5;fontColor=#003366" vertex="1" parent="OqCfkfcgzq9piRNMNPS6-177">
          <mxGeometry y="28.474576271186706" width="203" height="91.5254237288133" as="geometry" />
        </mxCell>
        <mxCell id="OqCfkfcgzq9piRNMNPS6-179" value="合同变更" style="text;html=1;align=center;verticalAlign=middle;resizable=0;points=[];autosize=1;strokeColor=none;fillColor=none;" vertex="1" parent="OqCfkfcgzq9piRNMNPS6-177">
          <mxGeometry width="70" height="30" as="geometry" />
        </mxCell>
        <mxCell id="OqCfkfcgzq9piRNMNPS6-180" value="" style="group" vertex="1" connectable="0" parent="1">
          <mxGeometry x="1028" y="872" width="160" height="118.00000000000034" as="geometry" />
        </mxCell>
        <mxCell id="OqCfkfcgzq9piRNMNPS6-181" value="&lt;p style=&quot;margin: 4px 0px 0px; text-align: center;&quot;&gt;&lt;b&gt;&lt;u&gt;contract_&lt;/u&gt;&lt;/b&gt;&lt;b style=&quot;background-color: initial;&quot;&gt;&lt;u&gt;changes&lt;/u&gt;&lt;/b&gt;&lt;/p&gt;&lt;hr&gt;&lt;p style=&quot;margin: 0px ; margin-left: 8px&quot;&gt;id&lt;/p&gt;&lt;p style=&quot;margin: 0px ; margin-left: 8px&quot;&gt;contract_id&lt;br&gt;&lt;/p&gt;&lt;p style=&quot;margin: 0px ; margin-left: 8px&quot;&gt;&lt;br&gt;&lt;/p&gt;" style="verticalAlign=top;align=left;overflow=fill;fontSize=12;fontFamily=Helvetica;html=1;strokeColor=#003366;shadow=1;fillColor=#D4E1F5;fontColor=#003366" vertex="1" parent="OqCfkfcgzq9piRNMNPS6-180">
          <mxGeometry y="28.00000000000034" width="160" height="90" as="geometry" />
        </mxCell>
        <mxCell id="OqCfkfcgzq9piRNMNPS6-182" value="合同归档" style="text;html=1;align=center;verticalAlign=middle;resizable=0;points=[];autosize=1;strokeColor=none;fillColor=none;" vertex="1" parent="OqCfkfcgzq9piRNMNPS6-180">
          <mxGeometry width="70" height="30" as="geometry" />
        </mxCell>
        <mxCell id="OqCfkfcgzq9piRNMNPS6-183" value="" style="group" vertex="1" connectable="0" parent="1">
          <mxGeometry x="1220" y="872" width="160" height="118.00000000000034" as="geometry" />
        </mxCell>
        <mxCell id="OqCfkfcgzq9piRNMNPS6-186" value="" style="group" vertex="1" connectable="0" parent="OqCfkfcgzq9piRNMNPS6-183">
          <mxGeometry width="160" height="118.00000000000034" as="geometry" />
        </mxCell>
        <mxCell id="OqCfkfcgzq9piRNMNPS6-184" value="&lt;p style=&quot;margin: 4px 0px 0px; text-align: center;&quot;&gt;&lt;b&gt;&lt;u&gt;contract_&lt;/u&gt;&lt;/b&gt;&lt;b style=&quot;background-color: initial;&quot;&gt;&lt;u&gt;changes&lt;/u&gt;&lt;/b&gt;&lt;/p&gt;&lt;hr&gt;&lt;p style=&quot;margin: 0px ; margin-left: 8px&quot;&gt;id&lt;/p&gt;&lt;p style=&quot;margin: 0px ; margin-left: 8px&quot;&gt;contract_id&lt;br&gt;&lt;/p&gt;&lt;p style=&quot;margin: 0px ; margin-left: 8px&quot;&gt;&lt;br&gt;&lt;/p&gt;" style="verticalAlign=top;align=left;overflow=fill;fontSize=12;fontFamily=Helvetica;html=1;strokeColor=#003366;shadow=1;fillColor=#D4E1F5;fontColor=#003366" vertex="1" parent="OqCfkfcgzq9piRNMNPS6-186">
          <mxGeometry y="28.00000000000034" width="160" height="90" as="geometry" />
        </mxCell>
        <mxCell id="OqCfkfcgzq9piRNMNPS6-185" value="合同支付" style="text;html=1;align=center;verticalAlign=middle;resizable=0;points=[];autosize=1;strokeColor=none;fillColor=none;" vertex="1" parent="OqCfkfcgzq9piRNMNPS6-186">
          <mxGeometry width="70" height="30" as="geometry" />
        </mxCell>
        <mxCell id="OqCfkfcgzq9piRNMNPS6-200" value="" style="endArrow=open;endSize=12;startArrow=diamondThin;startSize=14;startFill=0;edgeStyle=orthogonalEdgeStyle;rounded=0;exitX=0.5;exitY=0;exitDx=0;exitDy=0;entryX=0.5;entryY=1;entryDx=0;entryDy=0;" edge="1" parent="1" source="OqCfkfcgzq9piRNMNPS6-133" target="29">
          <mxGeometry x="439.28" y="728.04" as="geometry">
            <mxPoint x="721" y="890" as="sourcePoint" />
            <mxPoint x="671" y="740" as="targetPoint" />
            <Array as="points" />
          </mxGeometry>
        </mxCell>
        <mxCell id="OqCfkfcgzq9piRNMNPS6-201" value="1" style="resizable=0;align=left;verticalAlign=top;labelBackgroundColor=#ffffff;fontSize=10;strokeColor=#003366;shadow=1;fillColor=#D4E1F5;fontColor=#003366" connectable="0" vertex="1" parent="OqCfkfcgzq9piRNMNPS6-200">
          <mxGeometry x="-1" relative="1" as="geometry">
            <mxPoint x="10" y="-26.160000000000235" as="offset" />
          </mxGeometry>
        </mxCell>
        <mxCell id="OqCfkfcgzq9piRNMNPS6-202" value="1" style="resizable=0;align=right;verticalAlign=top;labelBackgroundColor=#ffffff;fontSize=10;strokeColor=#003366;shadow=1;fillColor=#D4E1F5;fontColor=#003366" connectable="0" vertex="1" parent="OqCfkfcgzq9piRNMNPS6-200">
          <mxGeometry x="1" relative="1" as="geometry">
            <mxPoint x="-11.080000000000421" as="offset" />
          </mxGeometry>
        </mxCell>
        <mxCell id="OqCfkfcgzq9piRNMNPS6-203" value="" style="endArrow=open;endSize=12;startArrow=diamondThin;startSize=14;startFill=0;edgeStyle=orthogonalEdgeStyle;entryX=0.5;entryY=1;rounded=0;entryDx=0;entryDy=0;exitX=0.5;exitY=0;exitDx=0;exitDy=0;" edge="1" parent="1" source="OqCfkfcgzq9piRNMNPS6-178">
          <mxGeometry x="419.30999999999995" y="820" as="geometry">
            <mxPoint x="920" y="870" as="sourcePoint" />
            <mxPoint x="671.0300000000004" y="731.9600000000007" as="targetPoint" />
            <Array as="points">
              <mxPoint x="899" y="840" />
              <mxPoint x="671" y="840" />
            </Array>
          </mxGeometry>
        </mxCell>
        <mxCell id="OqCfkfcgzq9piRNMNPS6-204" value="1" style="resizable=0;align=left;verticalAlign=top;labelBackgroundColor=#ffffff;fontSize=10;strokeColor=#003366;shadow=1;fillColor=#D4E1F5;fontColor=#003366" connectable="0" vertex="1" parent="OqCfkfcgzq9piRNMNPS6-203">
          <mxGeometry x="-1" relative="1" as="geometry">
            <mxPoint x="10" y="-26.160000000000235" as="offset" />
          </mxGeometry>
        </mxCell>
        <mxCell id="OqCfkfcgzq9piRNMNPS6-205" value="1" style="resizable=0;align=right;verticalAlign=top;labelBackgroundColor=#ffffff;fontSize=10;strokeColor=#003366;shadow=1;fillColor=#D4E1F5;fontColor=#003366" connectable="0" vertex="1" parent="OqCfkfcgzq9piRNMNPS6-203">
          <mxGeometry x="1" relative="1" as="geometry">
            <mxPoint x="-11.080000000000421" as="offset" />
          </mxGeometry>
        </mxCell>
        <mxCell id="OqCfkfcgzq9piRNMNPS6-206" value="" style="endArrow=open;endSize=12;startArrow=diamondThin;startSize=14;startFill=0;edgeStyle=orthogonalEdgeStyle;entryX=0.5;entryY=1;rounded=0;entryDx=0;entryDy=0;exitX=0.575;exitY=-0.011;exitDx=0;exitDy=0;exitPerimeter=0;" edge="1" parent="1" source="OqCfkfcgzq9piRNMNPS6-181">
          <mxGeometry x="419.30999999999995" y="820" as="geometry">
            <mxPoint x="1010" y="910" as="sourcePoint" />
            <mxPoint x="671.0300000000007" y="731.9600000000007" as="targetPoint" />
            <Array as="points">
              <mxPoint x="1120" y="840" />
              <mxPoint x="671" y="840" />
            </Array>
          </mxGeometry>
        </mxCell>
        <mxCell id="OqCfkfcgzq9piRNMNPS6-207" value="1" style="resizable=0;align=left;verticalAlign=top;labelBackgroundColor=#ffffff;fontSize=10;strokeColor=#003366;shadow=1;fillColor=#D4E1F5;fontColor=#003366" connectable="0" vertex="1" parent="OqCfkfcgzq9piRNMNPS6-206">
          <mxGeometry x="-1" relative="1" as="geometry">
            <mxPoint x="10" y="-26.160000000000235" as="offset" />
          </mxGeometry>
        </mxCell>
        <mxCell id="OqCfkfcgzq9piRNMNPS6-208" value="1" style="resizable=0;align=right;verticalAlign=top;labelBackgroundColor=#ffffff;fontSize=10;strokeColor=#003366;shadow=1;fillColor=#D4E1F5;fontColor=#003366" connectable="0" vertex="1" parent="OqCfkfcgzq9piRNMNPS6-206">
          <mxGeometry x="1" relative="1" as="geometry">
            <mxPoint x="-11.080000000000421" as="offset" />
          </mxGeometry>
        </mxCell>
        <mxCell id="OqCfkfcgzq9piRNMNPS6-209" value="" style="endArrow=open;endSize=12;startArrow=diamondThin;startSize=14;startFill=0;edgeStyle=orthogonalEdgeStyle;entryX=0.5;entryY=1;rounded=0;entryDx=0;entryDy=0;exitX=0.5;exitY=0;exitDx=0;exitDy=0;" edge="1" parent="1">
          <mxGeometry x="419.30999999999995" y="820" as="geometry">
            <mxPoint x="1290" y="900.0000000000005" as="sourcePoint" />
            <mxPoint x="671.0300000000007" y="731.9600000000007" as="targetPoint" />
            <Array as="points">
              <mxPoint x="1290" y="840" />
              <mxPoint x="671" y="840" />
            </Array>
          </mxGeometry>
        </mxCell>
        <mxCell id="OqCfkfcgzq9piRNMNPS6-210" value="1" style="resizable=0;align=left;verticalAlign=top;labelBackgroundColor=#ffffff;fontSize=10;strokeColor=#003366;shadow=1;fillColor=#D4E1F5;fontColor=#003366" connectable="0" vertex="1" parent="OqCfkfcgzq9piRNMNPS6-209">
          <mxGeometry x="-1" relative="1" as="geometry">
            <mxPoint x="10" y="-26.160000000000235" as="offset" />
          </mxGeometry>
        </mxCell>
        <mxCell id="OqCfkfcgzq9piRNMNPS6-211" value="1" style="resizable=0;align=right;verticalAlign=top;labelBackgroundColor=#ffffff;fontSize=10;strokeColor=#003366;shadow=1;fillColor=#D4E1F5;fontColor=#003366" connectable="0" vertex="1" parent="OqCfkfcgzq9piRNMNPS6-209">
          <mxGeometry x="1" relative="1" as="geometry">
            <mxPoint x="-11.080000000000421" as="offset" />
          </mxGeometry>
        </mxCell>
        <mxCell id="OqCfkfcgzq9piRNMNPS6-212" value="" style="endArrow=none;edgeStyle=orthogonalEdgeStyle;entryX=0.5;entryY=1;entryDx=0;entryDy=0;exitX=0.5;exitY=0;exitDx=0;exitDy=0;" edge="1" parent="1" source="OqCfkfcgzq9piRNMNPS6-130" target="34">
          <mxGeometry x="74.03999999999996" y="1042.5399999999997" as="geometry">
            <mxPoint x="240" y="1116.0000000000005" as="sourcePoint" />
            <mxPoint x="425" y="998.0000000000005" as="targetPoint" />
            <Array as="points">
              <mxPoint x="415" y="1050" />
              <mxPoint x="415" y="1050" />
            </Array>
          </mxGeometry>
        </mxCell>
        <mxCell id="OqCfkfcgzq9piRNMNPS6-213" value="child" style="resizable=0;align=left;verticalAlign=bottom;labelBackgroundColor=#ffffff;fontSize=10;strokeColor=#003366;shadow=1;fillColor=#D4E1F5;fontColor=#003366" connectable="0" vertex="1" parent="OqCfkfcgzq9piRNMNPS6-212">
          <mxGeometry x="-1" relative="1" as="geometry">
            <mxPoint y="-4" as="offset" />
          </mxGeometry>
        </mxCell>
        <mxCell id="OqCfkfcgzq9piRNMNPS6-214" value="parent" style="resizable=0;align=right;verticalAlign=bottom;labelBackgroundColor=#ffffff;fontSize=10;strokeColor=#003366;shadow=1;fillColor=#D4E1F5;fontColor=#003366" connectable="0" vertex="1" parent="OqCfkfcgzq9piRNMNPS6-212">
          <mxGeometry x="1" relative="1" as="geometry">
            <mxPoint x="-10" y="25" as="offset" />
          </mxGeometry>
        </mxCell>
        <mxCell id="OqCfkfcgzq9piRNMNPS6-215" value="" style="endArrow=none;edgeStyle=orthogonalEdgeStyle;entryX=0.5;entryY=1;entryDx=0;entryDy=0;exitX=0.5;exitY=0;exitDx=0;exitDy=0;" edge="1" parent="1" source="OqCfkfcgzq9piRNMNPS6-131" target="34">
          <mxGeometry x="84.03999999999996" y="1052.5399999999997" as="geometry">
            <mxPoint x="425" y="1117.0000000000005" as="sourcePoint" />
            <mxPoint x="425" y="998.0000000000005" as="targetPoint" />
            <Array as="points">
              <mxPoint x="620" y="1010" />
              <mxPoint x="415" y="1010" />
            </Array>
          </mxGeometry>
        </mxCell>
        <mxCell id="OqCfkfcgzq9piRNMNPS6-216" value="child" style="resizable=0;align=left;verticalAlign=bottom;labelBackgroundColor=#ffffff;fontSize=10;strokeColor=#003366;shadow=1;fillColor=#D4E1F5;fontColor=#003366" connectable="0" vertex="1" parent="OqCfkfcgzq9piRNMNPS6-215">
          <mxGeometry x="-1" relative="1" as="geometry">
            <mxPoint y="-4" as="offset" />
          </mxGeometry>
        </mxCell>
        <mxCell id="OqCfkfcgzq9piRNMNPS6-217" value="parent" style="resizable=0;align=right;verticalAlign=bottom;labelBackgroundColor=#ffffff;fontSize=10;strokeColor=#003366;shadow=1;fillColor=#D4E1F5;fontColor=#003366" connectable="0" vertex="1" parent="OqCfkfcgzq9piRNMNPS6-215">
          <mxGeometry x="1" relative="1" as="geometry">
            <mxPoint x="-10" y="25" as="offset" />
          </mxGeometry>
        </mxCell>
      </root>
    </mxGraphModel>
  </diagram>
</mxfile>
